<?xml version="1.0" encoding="UTF-8" standalone="no"?>
<svg width="21px" height="26px" viewBox="0 0 21 26" version="1.1" xmlns="http://www.w3.org/2000/svg" xmlns:xlink="http://www.w3.org/1999/xlink">
    <!-- Generator: Sketch 3.6.1 (26313) - http://www.bohemiancoding.com/sketch -->
    <title>Page 1</title>
    <desc>Created with Sketch.</desc>
    <defs>
        <path id="path-1" d="M0,0.13802381 L20.9981392,0.13802381 L20.9981392,25.6666667 L0,25.6666667"></path>
    </defs>
    <g id="•-Black-|-White" stroke="none" stroke-width="1" fill="none" fill-rule="evenodd">
        <g id="Site-02-Desktop---Black-|-White---Montserat" transform="translate(-386.000000, -6482.000000)">
            <g id="•-Selling-Agent" transform="translate(0.000000, 5906.000000)">
                <g id="•-Agent-Team-Module" transform="translate(0.000000, 80.000000)">
                    <g id="Page-1" transform="translate(386.000000, 496.000000)">
                        <mask id="mask-2" fill="white">
                            <use xlink:href="#path-1"></use>
                        </mask>
                        <g id="Clip-2"></g>
                        <path d="M2.42775949,0.581795238 C3.52374684,-0.174061905 6.35981013,0.162485714 6.29441772,0.651985714 C6.22822785,1.14122381 7.77079747,6.96362857 7.70593671,7.45286667 C7.64027848,7.94236667 5.6665443,9.30505714 5.08891139,9.7044619 C4.51712658,10.0999381 7.52756962,14.9582714 7.5844557,15.0496762 C7.65277215,15.1347952 11.2400506,19.5950333 11.8121013,19.2003429 C12.3894684,18.8004143 14.3629367,17.4374619 14.8504557,17.544581 C15.3382405,17.6519619 20.3463418,21.0805571 20.8341266,21.1871524 C21.3216456,21.2950571 20.6690506,24.0413905 19.5733291,24.7985571 C18.6381646,25.4444143 14.0101899,27.5771048 7.76601266,21.240319 C7.06105063,20.657581 6.00121519,19.4174619 4.45040506,17.2287238 C4.44881013,17.2271524 4.44827848,17.2263667 4.44801266,17.225319 C4.44562025,17.2234857 4.44562025,17.2221762 4.44402532,17.220081 C4.44322785,17.2185095 4.44189873,17.2172 4.44083544,17.2151048 C4.43950633,17.2135333 4.43817722,17.2119619 4.4368481,17.2103905 C2.88710127,15.0206048 2.07262025,13.612081 1.7605443,12.7590571 C-2.12232911,4.79139048 1.49312658,1.2284381 2.42775949,0.581795238" id="Fill-1" fill="#FFFFFF" mask="url(#mask-2)"></path>
                    </g>
                </g>
            </g>
        </g>
    </g>
</svg>